<svg width="36.000000" height="36.000000" viewBox="-1 -1 36 36" fill="#444444" xmlns="http://www.w3.org/2000/svg" xmlns:xlink="http://www.w3.org/1999/xlink">
	<desc>
			Created with Pixso.
	</desc>
	<defs/>
	<path id="矢量 267" d="M25.29 22.16L23.64 22.16L23.06 21.6C25.1 19.22 26.33 16.14 26.33 12.79C26.33 5.31 20.27 -0.75 12.79 -0.75C5.31 -0.75 -0.75 5.31 -0.75 12.79C-0.75 20.27 5.31 26.33 12.79 26.33C16.14 26.33 19.22 25.1 21.6 23.06L22.16 23.64L22.16 25.29L32.58 35.68L35.68 32.58L25.29 22.16ZM12.79 22.16C7.6 22.16 3.41 17.97 3.41 12.79C3.41 7.6 7.6 3.41 12.79 3.41C17.97 3.41 22.16 7.6 22.16 12.79C22.16 17.97 17.97 22.16 12.79 22.16Z"  fill-opacity="1.000000" fill-rule="evenodd"/>
</svg>
